<svg width="512" height="412" viewBox="0 0 512 412" fill="none" xmlns="http://www.w3.org/2000/svg">
<path fill-rule="evenodd" clip-rule="evenodd" d="M287.361 93.9016C290.361 91.4905 294.427 90.1362 298.667 90.1362C302.907 90.1362 306.974 91.4905 309.974 93.9016L437.974 196.902C440.97 199.316 442.653 202.588 442.653 206C442.653 209.412 440.97 212.684 437.974 215.098L309.974 318.098C308.509 319.363 306.743 320.378 304.78 321.081C302.817 321.785 300.699 322.164 298.55 322.194C296.402 322.225 294.268 321.907 292.276 321.259C290.284 320.611 288.474 319.648 286.954 318.425C285.435 317.202 284.237 315.746 283.433 314.143C282.628 312.54 282.233 310.823 282.271 309.094C282.309 307.365 282.779 305.66 283.653 304.081C284.528 302.502 285.789 301.08 287.361 299.902L388.054 218.875H85.334C81.0905 218.875 77.0209 217.518 74.0203 215.104C71.0197 212.689 69.334 209.415 69.334 206C69.334 202.585 71.0197 199.31 74.0203 196.896C77.0209 194.481 81.0905 193.125 85.334 193.125H388.054L287.361 112.098C284.364 109.684 282.681 106.412 282.681 103C282.681 99.588 284.364 96.3156 287.361 93.9016Z" fill="#150A0A"/>
</svg>
