<svg width="512" height="512" viewBox="0 0 512 512" fill="none" xmlns="http://www.w3.org/2000/svg">
<path d="M202.342 45.4913C176 57.4721 153.6 76.6209 153.6 102.4V179.558C162.127 179.084 170.673 179.084 179.2 179.558V145.869C186.138 151.04 194.048 155.546 202.342 159.309C229.837 171.802 266.931 179.2 307.2 179.2C347.469 179.2 384.563 171.802 412.058 159.309C420.22 155.65 427.977 151.145 435.2 145.869V358.4C435.2 367.975 426.086 380.8 401.459 392.013C378.01 402.662 344.678 409.6 307.2 409.6V422.4C307.2 426.837 306.765 431.104 305.894 435.2H307.2C347.469 435.2 384.563 427.802 412.058 415.309C438.4 403.328 460.8 384.179 460.8 358.4V102.4C460.8 76.6209 438.4 57.4721 412.058 45.4913C384.563 32.9985 347.469 25.6001 307.2 25.6001C266.931 25.6001 229.837 32.9985 202.342 45.4913ZM212.941 136.013C188.314 124.8 179.2 111.949 179.2 102.4C179.2 92.8257 188.314 80.0001 212.941 68.7873C236.39 58.1377 269.722 51.2001 307.2 51.2001C344.678 51.2001 378.01 58.1121 401.459 68.7873C426.086 80.0001 435.2 92.8513 435.2 102.4C435.2 111.974 426.086 124.8 401.459 136.013C378.01 146.663 344.678 153.6 307.2 153.6C269.722 153.6 236.39 146.688 212.941 136.013ZM179.2 205.184C186.965 205.662 194.475 206.558 201.728 207.872C211.968 209.69 221.619 212.301 230.4 215.552C261.274 227.072 281.6 246.605 281.6 268.8C281.6 304.128 230.016 332.8 166.4 332.8C102.784 332.8 51.2 304.128 51.2 268.8C51.2 235.853 96 208.717 153.6 205.184C162.125 204.65 170.675 204.65 179.2 205.184ZM279.706 434.048C269.85 463.821 222.874 486.375 166.4 486.375C102.784 486.4 51.2 457.728 51.2 422.4V321.408C57.728 327.296 65.024 332.288 72.4992 336.461C97.8432 350.541 131.072 358.426 166.4 358.426C201.728 358.426 234.982 350.515 260.301 336.461C267.802 332.288 275.098 327.245 281.626 321.357V408.576L281.6 422.4C281.6 426.394 280.969 430.276 279.706 434.048Z" fill="#D8FF44"/>
</svg>
