<svg width="512" height="512" viewBox="0 0 512 512" fill="none" xmlns="http://www.w3.org/2000/svg">
<path d="M336 277.333C336 273.09 334.314 269.02 331.314 266.02C328.313 263.019 324.243 261.333 320 261.333H192C187.757 261.333 183.687 263.019 180.686 266.02C177.686 269.02 176 273.09 176 277.333C176 281.577 177.686 285.646 180.686 288.647C183.687 291.648 187.757 293.333 192 293.333H320C324.243 293.333 328.313 291.648 331.314 288.647C334.314 285.646 336 281.577 336 277.333ZM336 362.667C336 358.423 334.314 354.353 331.314 351.353C328.313 348.352 324.243 346.667 320 346.667H192C187.757 346.667 183.687 348.352 180.686 351.353C177.686 354.353 176 358.423 176 362.667C176 366.91 177.686 370.98 180.686 373.98C183.687 376.981 187.757 378.667 192 378.667H320C324.243 378.667 328.313 376.981 331.314 373.98C334.314 370.98 336 366.91 336 362.667Z" fill="#D8FF44"/>
<path fill-rule="evenodd" clip-rule="evenodd" d="M149.333 48C133.774 48 118.852 54.1809 107.85 65.1831C96.8476 76.1852 90.6666 91.1073 90.6666 106.667V405.333C90.6666 420.893 96.8476 435.815 107.85 446.817C118.852 457.819 133.774 464 149.333 464H362.667C378.226 464 393.148 457.819 404.15 446.817C415.152 435.815 421.333 420.893 421.333 405.333V169.984C421.333 161.856 418.688 153.963 413.781 147.477L349.824 62.8267C346.344 58.2212 341.844 54.4853 336.676 51.9127C331.509 49.3401 325.815 48.0008 320.043 48H149.333ZM122.667 106.667C122.667 91.9467 134.613 80 149.333 80H304V173.803C304 182.635 311.168 189.803 320 189.803H389.333V405.333C389.333 420.053 377.387 432 362.667 432H149.333C134.613 432 122.667 420.053 122.667 405.333V106.667Z" fill="#D8FF44"/>
</svg>
