<svg width="453" height="476" viewBox="0 0 453 476" fill="none" xmlns="http://www.w3.org/2000/svg">
<path d="M411.733 344.533L216.533 149.333H305.067V106.667C305.067 88.8889 298.937 73.7778 286.677 61.3334C274.418 48.8889 259.392 42.6667 241.6 42.6667C223.808 42.6667 208.875 48.8036 196.8 61.0774C184.725 73.3511 178.681 88.5476 178.667 106.667V111.467L139.733 72.5334C147.556 50.8445 160.889 33.3298 179.733 19.9894C198.578 6.64891 219.2 -0.0141995 241.6 2.27192e-05C271.111 2.27192e-05 296.178 10.4036 316.8 31.2107C337.422 52.0178 347.733 77.1698 347.733 106.667V149.333H411.733V344.533ZM422.4 475.733L394.667 448H70.4V151.467H98.1333L0 53.3334L29.8667 23.4667L452.267 445.867L422.4 475.733ZM211.2 265.6C207.289 269.511 204.267 274.048 202.133 279.211C200 284.373 198.933 289.97 198.933 296C198.933 307.733 203.115 317.781 211.477 326.144C219.84 334.507 229.881 338.681 241.6 338.667C247.644 338.667 253.248 337.6 258.411 335.467C263.573 333.333 268.103 330.311 272 326.4L211.2 265.6Z" fill="#D8FF44"/>
</svg>
