<svg width="512" height="512" viewBox="0 0 512 512" fill="none" xmlns="http://www.w3.org/2000/svg">
<path d="M429.112 512H82.9017C37.1888 512 0 474.803 0 429.075V82.9246C0 37.1969 37.1888 0 82.9017 0H429.112C474.811 0 512 37.1969 512 82.9246V429.089C512 474.816 474.811 512 429.112 512ZM173.006 423.273H173.112V202.424H104.562V423.273H172.993H173.006ZM138.791 172.261C144.002 172.268 149.165 171.244 153.981 169.248C158.798 167.252 163.174 164.323 166.859 160.629C170.545 156.935 173.467 152.548 175.458 147.72C177.449 142.892 178.471 137.718 178.464 132.494C178.443 121.954 174.256 111.851 166.821 104.398C159.385 96.9447 149.306 92.7482 138.791 92.7272C128.27 92.7307 118.181 96.9216 110.741 104.379C103.302 111.835 99.1207 121.948 99.1172 132.494C99.1207 143.04 103.302 153.152 110.741 160.609C118.181 168.066 128.27 172.257 138.791 172.261ZM429.508 423.287V302.211C429.508 242.72 416.623 196.953 347.373 196.953C314.083 196.953 291.735 215.233 282.55 232.586H281.625V202.424H215.983V423.273H284.414V313.988C284.414 285.163 289.872 257.278 325.514 257.278C360.562 257.278 361.077 290.236 361.077 315.842V423.273H429.508V423.287Z" fill="#4a4a4a"/>
</svg>
