<svg width="512" height="512" viewBox="0 0 512 512" fill="none" xmlns="http://www.w3.org/2000/svg">
<path fill-rule="evenodd" clip-rule="evenodd" d="M256 42.6668C231.308 42.6616 207.142 49.7985 186.414 63.217C165.686 76.6356 149.282 95.7629 139.179 118.293C137.741 121.523 136.269 124.738 134.763 127.936L134.336 127.957C132.971 128 131.115 128 128 128C105.368 128 83.6633 136.991 67.6602 152.994C51.6571 168.997 42.6667 190.702 42.6667 213.333C42.6667 235.965 51.6571 257.67 67.6602 273.673C83.6633 289.676 105.368 298.667 128 298.667H131.669L174.336 256H128C116.684 256 105.832 251.505 97.8301 243.503C89.8286 235.502 85.3334 224.649 85.3334 213.333C85.3334 202.018 89.8286 191.165 97.8301 183.164C105.832 175.162 116.684 170.667 128 170.667H129.365C133.803 170.667 138.965 170.688 143.232 169.813C148.543 168.905 153.62 166.947 158.165 164.053C163.307 160.725 166.848 156.587 169.536 152.811C171.183 150.378 172.618 147.809 173.824 145.131C174.962 142.756 176.356 139.712 178.005 136L178.091 135.787C184.82 120.75 195.756 107.982 209.58 99.023C223.405 90.064 239.526 85.2969 256 85.2969C272.474 85.2969 288.595 90.064 302.42 99.023C316.244 107.982 327.18 120.75 333.909 135.787L334.016 136C335.652 139.698 337.038 142.741 338.176 145.131C339.157 147.2 340.608 150.208 342.464 152.811C345.152 156.565 348.672 160.725 353.835 164.075C358.997 167.403 364.224 168.917 368.768 169.835C373.035 170.688 378.197 170.688 382.635 170.688L384 170.667C395.316 170.667 406.168 175.162 414.17 183.164C422.171 191.165 426.667 202.018 426.667 213.333C426.667 224.649 422.171 235.502 414.17 243.503C406.168 251.505 395.316 256 384 256H337.664L380.331 298.667H384C406.632 298.667 428.337 289.676 444.34 273.673C460.343 257.67 469.333 235.965 469.333 213.333C469.333 190.702 460.343 168.997 444.34 152.994C428.337 136.991 406.632 128 384 128C380.885 128 379.029 128 377.664 127.957H377.237L376.704 126.827C375.384 123.994 374.09 121.15 372.821 118.293C362.718 95.7629 346.314 76.6356 325.586 63.217C304.859 49.7985 280.692 42.6616 256 42.6668Z" fill="#D8FF44"/>
<path d="M256 256L240.917 240.917L256 225.835L271.083 240.917L256 256ZM277.333 448C277.333 453.658 275.086 459.084 271.085 463.085C267.084 467.086 261.658 469.333 256 469.333C250.342 469.333 244.916 467.086 240.915 463.085C236.914 459.084 234.667 453.658 234.667 448H277.333ZM155.584 326.251L240.917 240.917L271.083 271.083L185.749 356.416L155.584 326.251ZM271.083 240.917L356.416 326.251L326.251 356.416L240.917 271.083L271.083 240.917ZM277.333 256V448H234.667V256H277.333Z" fill="#D8FF44"/>
</svg>
